<svg xmlns="http://www.w3.org/2000/svg" height="24" viewBox="0 -960 960 960" width="24"><path d="M378.461-344.615q-14.692 0-24.269-9.577-9.577-9.577-9.577-24.269v-67.693q14.693 0 24.269-9.577 9.577-9.577 9.577-24.269 0-14.692-9.577-24.269-9.576-9.577-24.269-9.577v-67.693q0-14.692 9.577-24.269 9.577-9.577 24.269-9.577h203.078q14.692 0 24.269 9.577 9.577 9.577 9.577 24.269v67.693q-14.693 0-24.27 9.577-9.576 9.577-9.576 24.269 0 14.692 9.576 24.269 9.577 9.577 24.27 9.577v67.693q0 14.692-9.577 24.269-9.577 9.577-24.269 9.577H378.461ZM480-395.385q7.231 0 12.077-4.846t4.846-12.077q0-7.23-4.846-12.077-4.846-4.846-12.077-4.846t-12.077 4.846q-4.846 4.847-4.846 12.077 0 7.231 4.846 12.077T480-395.385Zm0-67.692q7.231 0 12.077-4.846T496.923-480q0-7.231-4.846-12.077T480-496.923q-7.231 0-12.077 4.846T463.077-480q0 7.231 4.846 12.077T480-463.077Zm0-67.692q7.231 0 12.077-4.846 4.846-4.847 4.846-12.077 0-7.231-4.846-12.077T480-564.615q-7.231 0-12.077 4.846t-4.846 12.077q0 7.23 4.846 12.077 4.846 4.846 12.077 4.846ZM304.615-79.999Q277-80 258.5-98.5 240-117 240-144.616v-670.77Q240-843 258.5-861.5 277-880 304.615-880h350.77Q683-880 701.5-861.5 720-843 720-815.385v670.77Q720-117 701.5-98.5 683-80 655.385-80h-350.77ZM280-180v35.385q0 9.23 7.692 16.923Q295.385-120 304.615-120h350.77q9.23 0 16.923-7.692Q680-135.385 680-144.615V-180H280Zm0-40h400v-520H280v520Zm0-560h400v-35.385q0-9.23-7.692-16.923Q664.615-840 655.385-840h-350.77q-9.23 0-16.923 7.692Q280-824.615 280-815.385V-780Zm0 0V-840v60Zm0 600V-120v-60Z"/></svg>