<svg width="27" height="27" viewBox="0 0 27 27" fill="none" xmlns="http://www.w3.org/2000/svg">
<g id="Huge-icon">
<path id="Subtract" fill-rule="evenodd" clip-rule="evenodd" d="M23.625 11.4191V20.2127C23.625 22.7186 21.6103 24.75 19.125 24.75H7.875C5.38972 24.75 3.375 22.7186 3.375 20.2127V11.4191C3.375 10.0568 3.9821 8.76656 5.02859 7.90484L10.6536 3.27302C12.3101 1.909 14.6899 1.90899 16.3464 3.27301L21.9714 7.90484C23.0179 8.76656 23.625 10.0568 23.625 11.4191ZM17.1562 19.4062V21.9375C17.1562 22.5588 16.6526 23.0625 16.0312 23.0625H10.9688C10.3474 23.0625 9.84375 22.5588 9.84375 21.9375V19.4062C9.84375 17.387 11.4807 15.75 13.5 15.75C15.5193 15.75 17.1562 17.387 17.1562 19.4062Z" fill="white"/>
</g>
</svg>
