<svg xmlns="http://www.w3.org/2000/svg" height="24" viewBox="0 -960 960 960" width="24"><path d="M480-121.538q-120.539-35.769-200.269-146.039Q200-377.846 200-516v-216.308l280-104.615 280 104.615V-516q0 67.308-20.923 131.962-20.923 64.654-64.923 123.884L550.769-383.538q-14.923 11.769-33.115 17.654Q499.462-360 480-360q-49.5 0-84.75-35.25T360-480q0-49.5 35.25-84.75T480-600q49.5 0 84.75 35.25T600-480q0 18.508-5.5 35.754t-14.961 32.4l89.23 89.231q23.077-43.308 37.154-91Q720-461.308 720-516v-189l-240-89.231L240-705v189q0 121 68 220t172 132q26-8 49.5-20.5T576-214l25.231 29.846q-29.923 21.616-58.039 36.616-28.115 15-63.192 26ZM480-400q33 0 56.5-23.5T560-480q0-33-23.5-56.5T480-560q-33 0-56.5 23.5T400-480q0 33 23.5 56.5T480-400Zm1.846-78.538Z"/></svg>